<svg viewBox="0 0 330 200" xmlns="http://www.w3.org/2000/svg"><g><g><g><g><g><line x1="22" y1="174.0204709936779" x2="17" y2="174.0204709936779" style="visibility: inherit;" fill="rgb(0, 0, 0)" stroke="rgb(204, 204, 204)" stroke-width="1px"></line></g><g transform="translate(12, 0)"><text x="0" y="174.0204709936779" dx="0em" dy="0.3em" style="text-anchor: end; visibility: hidden; font-family: &quot;Helvetica Neue&quot;, sans-serif; font-size: 12px; font-weight: 200;" fill="rgb(50, 49, 63)" stroke="none" stroke-width="1px">1</text></g><line x1="22" y1="0" x2="22" y2="178" fill="rgb(0, 0, 0)" stroke="rgb(204, 204, 204)" stroke-width="1px"></line></g></g><g transform="translate(22, 0)" clip-path="url(#clip_0)"><clipPath id="clip_0"><rect width="308" height="178"></rect></clipPath><g><g><g><line x1="0" y1="0" x2="0" y2="178" fill="rgb(0, 0, 0)" stroke="rgb(60, 60, 60)" stroke-width="1px" opacity="0.25"></line><line x1="30.8" y1="0" x2="30.8" y2="178" fill="rgb(0, 0, 0)" stroke="rgb(60, 60, 60)" stroke-width="1px" opacity="0.25"></line><line x1="61.6" y1="0" x2="61.6" y2="178" fill="rgb(0, 0, 0)" stroke="rgb(60, 60, 60)" stroke-width="1px" opacity="0.25"></line><line x1="92.39999999999999" y1="0" x2="92.39999999999999" y2="178" fill="rgb(0, 0, 0)" stroke="rgb(60, 60, 60)" stroke-width="1px" opacity="0.25"></line><line x1="123.2" y1="0" x2="123.2" y2="178" fill="rgb(0, 0, 0)" stroke="rgb(60, 60, 60)" stroke-width="1px" opacity="0.25"></line><line x1="154" y1="0" x2="154" y2="178" fill="rgb(0, 0, 0)" stroke="rgb(60, 60, 60)" stroke-width="1px" opacity="0.25"></line><line x1="184.79999999999998" y1="0" x2="184.79999999999998" y2="178" fill="rgb(0, 0, 0)" stroke="rgb(60, 60, 60)" stroke-width="1px" opacity="0.25"></line><line x1="215.6" y1="0" x2="215.6" y2="178" fill="rgb(0, 0, 0)" stroke="rgb(60, 60, 60)" stroke-width="1px" opacity="0.25"></line><line x1="246.4" y1="0" x2="246.4" y2="178" fill="rgb(0, 0, 0)" stroke="rgb(60, 60, 60)" stroke-width="1px" opacity="0.25"></line><line x1="277.2" y1="0" x2="277.2" y2="178" fill="rgb(0, 0, 0)" stroke="rgb(60, 60, 60)" stroke-width="1px" opacity="0.25"></line><line x1="308" y1="0" x2="308" y2="178" fill="rgb(0, 0, 0)" stroke="rgb(60, 60, 60)" stroke-width="1px" opacity="0.25"></line></g><g><line x1="0" y1="174.0204709936779" x2="308" y2="174.0204709936779" fill="rgb(0, 0, 0)" stroke="rgb(60, 60, 60)" stroke-width="1px" opacity="0.25"></line></g></g></g><g><g><line x1="30.8" y1="0" x2="30.8" y2="178" fill="rgb(0, 0, 0)" stroke="rgb(153, 153, 153)" stroke-width="1.5px"></line></g></g><g><g><g><g><g><path stroke="rgb(255, 112, 67)" stroke-width="2px" d="M40.04,-13.553023538280712L43.120000000000005,6.467972358461566L46.199999999999996,20.240122468104914L49.28,43.38172194816755L52.36000000000001,57.77506917949047L55.44,69.73024308687594L58.52,81.55135094071676L61.6,96.30866896060944L64.67999999999999,101.98934761148831L67.76,110.28579128023713L70.84,115.7099822620147L73.92,115.1382087454042L77,126.45130060481105L80.08,133.4732680650865L83.16000000000001,136.41658095360802L86.24000000000001,139.794876626982L89.32,135.06329174594447L92.39999999999999,134.86894703898108L95.48,140.02610177264762L98.56,139.90289414849968L101.64,142.9385697807669L104.72000000000001,142.53694631182685L107.8,148.111393899026L110.88,143.13365535466798L113.96,140.31377979737144L117.04,143.01098221001484L120.12,146.65204117103372L123.2,144.6642284426556L126.27999999999999,150.42822604714877L129.35999999999999,149.01749943700125L132.44,144.59021459147667L135.52,145.53744090201275L138.6,141.08119831528285L141.68,144.85594201713613L144.76,148.7359886412923L147.84,148.31804809530968L150.92,144.16330426615238L154,145.84000587455046L157.08,147.45715468220598L160.16,147.99930276110288L163.24,151.35746120912137L166.32000000000002,143.53504027801645L169.4,151.14413733579903L172.48000000000002,148.43166213568193L175.55999999999997,144.1280863027144L178.64,142.955986579081L181.72,141.28626792077196L184.79999999999998,144.01550272187046L187.88,141.45142066851685L190.96,148.9531421413084L194.04,145.41040948898407L197.12,141.71006100224014L200.20000000000002,145.88336402602653L203.28,149.49854442775083L206.36,152.0003548560307L209.44000000000003,142.9706137003704L212.51999999999998,141.08295874840752L215.6,137.49733932674343L218.67999999999998,144.14602031123854L221.76,150.02819975886052L224.84,141.96470220700962L227.92,146.01598018925313L231,145.57336120518465L234.08,150.41865323469716L237.16,145.90958801548004L240.24,141.53728807133524L243.32000000000002,146.70031605569815L246.4,151.27960910089882L249.48000000000002,149.0238720944258L252.55999999999997,151.1595693581135L255.64,147.20528118483546L258.71999999999997,149.8924586084065L261.8,152.4935153985455L264.88,144.45426357440596L267.96,142.29718497049768L271.04,144.44970956429916L274.12,145.99590814618023L277.2,147.90326389622447L280.28000000000003,147.565206536519L283.36,149.81114929372305L286.44,145.93828413827617L289.52,143.77056970213118L292.59999999999997,149.48382023734263L295.68,146.71362039429238L298.76,145.171010223773" style="fill: none;" fill="none"></path></g></g></g></g><g opacity="0.2"><g><g><g><path stroke="rgb(255, 112, 67)" stroke-width="2px" d="M40.04,-7.763391607899507L43.120000000000005,14.067833664634179L46.199999999999996,25.428571428571416L49.28,52.26037600963302L52.36000000000001,63.210847191652846L55.44,74.22553741453399L58.52,85.9952399606103L61.6,101.88617088819802L64.67999999999999,104.10125109227805L67.76,113.38478513573057L70.84,117.72559882672888L73.92,114.92801787060283L77,130.7003148582308L80.08,136.09015917361776L83.16000000000001,137.50542946697936L86.24000000000001,141.04562152310137L89.32,133.33678666585502L92.39999999999999,134.79745522709925L95.48,141.94156496186457L98.56,139.85756510522833L101.64,144.0617736347289L104.72000000000001,142.38925963321546L107.8,150.18340753163156L110.88,141.3181280912681L113.96,139.28132067423684L117.04,144.00834291265062L120.12,148.00070683644807L123.2,143.93533442723952L126.27999999999999,152.57142857142856L129.35999999999999,148.49967778939185L132.44,142.97386868097942L135.52,145.8866026713705L138.6,139.45436430551834L141.68,146.25446188195747L144.76,150.1737953471122L147.84,148.1643657261929L150.92,142.6457221563424L154,146.4588733740684L157.08,148.0539774901451L160.16,148.1990014133159L163.24,152.60070563129398L166.32000000000002,140.6963751663605L169.4,153.98284946729214L172.48000000000002,147.43833558225694L175.55999999999997,142.55655832608585L178.64,142.52557155076735L181.72,140.67366458979768L184.79999999999998,145.02476639323535L187.88,140.51218762441204L190.96,151.75125198792247L194.04,144.114959558524L197.12,140.3573572559914L200.20000000000002,147.43065853625174L203.28,150.83756213739454L206.36,152.92513919996503L209.44000000000003,139.70083884134885L212.51999999999998,140.39066671499512L215.6,136.18630762061477L218.67999999999998,146.6221259419175L221.76,152.21581221727374L224.84,139.0398054584896L227.92,147.5177023881147L231,145.41061143966724L234.08,152.21727250549537L237.16,144.26362516115722L240.24,139.94085992781405L243.32000000000002,148.61798100415388L246.4,152.9786716617792L249.48000000000002,148.19713143088285L252.55999999999997,151.9485018624524L255.64,145.7604018649598L258.71999999999997,150.8860943902504L261.8,153.45515741981802L264.88,141.53803602897014L267.96,141.50646370186416L271.04,145.2448821863082L274.12,146.5664734260703L277.2,148.6075572766169L280.28000000000003,147.44088049348161L283.36,150.64097125199433L286.44,144.52295081257617L289.52,142.975964764504L292.59999999999997,151.60795902425255L295.68,145.6992593272362L298.76,144.60491299946446" style="fill: none;" fill="none"></path></g></g></g></g></g></g><g transform="translate(22, 178)" clip-path="url(#clip_1)"><clipPath id="clip_1"><rect width="308" height="22"></rect></clipPath><g><g><line x1="0" y1="0" x2="0" y2="5" style="visibility: inherit;" fill="rgb(0, 0, 0)" stroke="rgb(204, 204, 204)" stroke-width="1px"></line><line x1="30.8" y1="0" x2="30.8" y2="5" style="visibility: inherit;" fill="rgb(0, 0, 0)" stroke="rgb(204, 204, 204)" stroke-width="1px"></line><line x1="61.6" y1="0" x2="61.6" y2="5" style="visibility: inherit;" fill="rgb(0, 0, 0)" stroke="rgb(204, 204, 204)" stroke-width="1px"></line><line x1="92.39999999999999" y1="0" x2="92.39999999999999" y2="5" style="visibility: inherit;" fill="rgb(0, 0, 0)" stroke="rgb(204, 204, 204)" stroke-width="1px"></line><line x1="123.2" y1="0" x2="123.2" y2="5" style="visibility: inherit;" fill="rgb(0, 0, 0)" stroke="rgb(204, 204, 204)" stroke-width="1px"></line><line x1="154" y1="0" x2="154" y2="5" style="visibility: inherit;" fill="rgb(0, 0, 0)" stroke="rgb(204, 204, 204)" stroke-width="1px"></line><line x1="184.79999999999998" y1="0" x2="184.79999999999998" y2="5" style="visibility: inherit;" fill="rgb(0, 0, 0)" stroke="rgb(204, 204, 204)" stroke-width="1px"></line><line x1="215.6" y1="0" x2="215.6" y2="5" style="visibility: inherit;" fill="rgb(0, 0, 0)" stroke="rgb(204, 204, 204)" stroke-width="1px"></line><line x1="246.4" y1="0" x2="246.4" y2="5" style="visibility: inherit;" fill="rgb(0, 0, 0)" stroke="rgb(204, 204, 204)" stroke-width="1px"></line><line x1="277.2" y1="0" x2="277.2" y2="5" style="visibility: inherit;" fill="rgb(0, 0, 0)" stroke="rgb(204, 204, 204)" stroke-width="1px"></line><line x1="308" y1="0" x2="308" y2="5" style="visibility: inherit;" fill="rgb(0, 0, 0)" stroke="rgb(204, 204, 204)" stroke-width="1px"></line></g><g transform="translate(0, 8)"><text x="0" y="0" dx="0em" dy="0.95em" style="text-anchor: middle; visibility: hidden; font-family: &quot;Helvetica Neue&quot;, sans-serif; font-size: 12px; font-weight: 200;" fill="rgb(50, 49, 63)" stroke="none" stroke-width="1px">-10</text><text x="30.8" y="0" dx="0em" dy="0.95em" style="text-anchor: middle; visibility: inherit; font-family: &quot;Helvetica Neue&quot;, sans-serif; font-size: 12px; font-weight: 200;" fill="rgb(50, 49, 63)" stroke="none" stroke-width="1px">0</text><text x="61.6" y="0" dx="0em" dy="0.95em" style="text-anchor: middle; visibility: inherit; font-family: &quot;Helvetica Neue&quot;, sans-serif; font-size: 12px; font-weight: 200;" fill="rgb(50, 49, 63)" stroke="none" stroke-width="1px">10</text><text x="92.39999999999999" y="0" dx="0em" dy="0.95em" style="text-anchor: middle; visibility: inherit; font-family: &quot;Helvetica Neue&quot;, sans-serif; font-size: 12px; font-weight: 200;" fill="rgb(50, 49, 63)" stroke="none" stroke-width="1px">20</text><text x="123.2" y="0" dx="0em" dy="0.95em" style="text-anchor: middle; visibility: inherit; font-family: &quot;Helvetica Neue&quot;, sans-serif; font-size: 12px; font-weight: 200;" fill="rgb(50, 49, 63)" stroke="none" stroke-width="1px">30</text><text x="154" y="0" dx="0em" dy="0.95em" style="text-anchor: middle; visibility: inherit; font-family: &quot;Helvetica Neue&quot;, sans-serif; font-size: 12px; font-weight: 200;" fill="rgb(50, 49, 63)" stroke="none" stroke-width="1px">40</text><text x="184.79999999999998" y="0" dx="0em" dy="0.95em" style="text-anchor: middle; visibility: inherit; font-family: &quot;Helvetica Neue&quot;, sans-serif; font-size: 12px; font-weight: 200;" fill="rgb(50, 49, 63)" stroke="none" stroke-width="1px">50</text><text x="215.6" y="0" dx="0em" dy="0.95em" style="text-anchor: middle; visibility: inherit; font-family: &quot;Helvetica Neue&quot;, sans-serif; font-size: 12px; font-weight: 200;" fill="rgb(50, 49, 63)" stroke="none" stroke-width="1px">60</text><text x="246.4" y="0" dx="0em" dy="0.95em" style="text-anchor: middle; visibility: inherit; font-family: &quot;Helvetica Neue&quot;, sans-serif; font-size: 12px; font-weight: 200;" fill="rgb(50, 49, 63)" stroke="none" stroke-width="1px">70</text><text x="277.2" y="0" dx="0em" dy="0.95em" style="text-anchor: middle; visibility: inherit; font-family: &quot;Helvetica Neue&quot;, sans-serif; font-size: 12px; font-weight: 200;" fill="rgb(50, 49, 63)" stroke="none" stroke-width="1px">80</text><text x="308" y="0" dx="0em" dy="0.95em" style="text-anchor: middle; visibility: hidden; font-family: &quot;Helvetica Neue&quot;, sans-serif; font-size: 12px; font-weight: 200;" fill="rgb(50, 49, 63)" stroke="none" stroke-width="1px">90</text></g><line x1="0" y1="0" x2="308" y2="0" fill="rgb(0, 0, 0)" stroke="rgb(204, 204, 204)" stroke-width="1px"></line></g></g></g></g></svg>